<mxfile host="Electron" agent="Mozilla/5.0 (Macintosh; Intel Mac OS X 10_15_7) AppleWebKit/537.36 (KHTML, like Gecko) draw.io/24.7.5 Chrome/126.0.6478.183 Electron/31.3.0 Safari/537.36" version="24.7.5">
  <diagram name="Шардирование" id="-H_mtQnk-PTXWXPvYvuk">
    <mxGraphModel dx="940" dy="713" grid="1" gridSize="10" guides="1" tooltips="1" connect="1" arrows="1" fold="1" page="1" pageScale="1" pageWidth="1169" pageHeight="827" math="0" shadow="0">
      <root>
        <mxCell id="0" />
        <mxCell id="1" parent="0" />
        <mxCell id="qQEgVHVd-fYbN1bwtHLe-2" value="Mongo" style="rounded=1;whiteSpace=wrap;html=1;align=left;verticalAlign=top;spacingLeft=5;strokeColor=#82b366;fillColor=#d5e8d4;arcSize=3;imageHeight=24;" parent="1" vertex="1">
          <mxGeometry x="280" y="50" width="570" height="510" as="geometry" />
        </mxCell>
        <mxCell id="Ph4pWJoEh3kO78XfMUsU-8" value="&lt;span style=&quot;&quot;&gt;&lt;font&gt;Shard2&lt;/font&gt;&lt;/span&gt;" style="rounded=1;whiteSpace=wrap;html=1;verticalAlign=top;align=left;spacingLeft=5;arcSize=5;" parent="1" vertex="1">
          <mxGeometry x="590" y="335" width="200" height="150" as="geometry" />
        </mxCell>
        <mxCell id="Ph4pWJoEh3kO78XfMUsU-7" value="&lt;font&gt;Shard1&lt;/font&gt;" style="rounded=1;whiteSpace=wrap;html=1;align=left;verticalAlign=top;spacingLeft=5;arcSize=5;imageHeight=24;" parent="1" vertex="1">
          <mxGeometry x="590" y="130" width="200" height="150" as="geometry" />
        </mxCell>
        <mxCell id="zA23MoTUsTF4_91t8viU-2" value="MongoDB&lt;div&gt;Primary&lt;br&gt;&lt;/div&gt;" style="shape=cylinder3;whiteSpace=wrap;html=1;boundedLbl=1;backgroundOutline=1;size=15;strokeColor=#212427;fontColor=#212427;" parent="1" vertex="1">
          <mxGeometry x="660" y="355" width="60" height="80" as="geometry" />
        </mxCell>
        <mxCell id="zA23MoTUsTF4_91t8viU-3" value="pymongo-api" style="rounded=1;whiteSpace=wrap;html=1;strokeColor=#212427;fontColor=#212427;" parent="1" vertex="1">
          <mxGeometry x="140" y="280" width="120" height="60" as="geometry" />
        </mxCell>
        <mxCell id="zA23MoTUsTF4_91t8viU-4" style="edgeStyle=orthogonalEdgeStyle;rounded=0;orthogonalLoop=1;jettySize=auto;html=1;exitX=1;exitY=0.5;exitDx=0;exitDy=0;entryX=0;entryY=0.5;entryDx=0;entryDy=0;strokeColor=#212427;fontColor=#212427;" parent="1" source="zA23MoTUsTF4_91t8viU-3" target="Ph4pWJoEh3kO78XfMUsU-1" edge="1">
          <mxGeometry relative="1" as="geometry" />
        </mxCell>
        <mxCell id="sEKXlLHFd7eWCiAS6N1--1" value="MongoDB&lt;div&gt;Primary&lt;/div&gt;" style="shape=cylinder3;whiteSpace=wrap;html=1;boundedLbl=1;backgroundOutline=1;size=15;strokeColor=#212427;fontColor=#212427;" parent="1" vertex="1">
          <mxGeometry x="660" y="165" width="60" height="80" as="geometry" />
        </mxCell>
        <mxCell id="Ph4pWJoEh3kO78XfMUsU-4" value="" style="edgeStyle=orthogonalEdgeStyle;rounded=0;orthogonalLoop=1;jettySize=auto;html=1;" parent="1" source="Ph4pWJoEh3kO78XfMUsU-1" target="Ph4pWJoEh3kO78XfMUsU-2" edge="1">
          <mxGeometry relative="1" as="geometry" />
        </mxCell>
        <mxCell id="Ph4pWJoEh3kO78XfMUsU-1" value="Mongos Router" style="rounded=1;whiteSpace=wrap;html=1;strokeColor=#212427;fontColor=#212427;" parent="1" vertex="1">
          <mxGeometry x="350" y="280" width="120" height="60" as="geometry" />
        </mxCell>
        <mxCell id="Ph4pWJoEh3kO78XfMUsU-2" value="ConfigSrv1" style="rounded=1;whiteSpace=wrap;html=1;strokeColor=#212427;fontColor=#212427;" parent="1" vertex="1">
          <mxGeometry x="350" y="170" width="120" height="60" as="geometry" />
        </mxCell>
        <mxCell id="Ph4pWJoEh3kO78XfMUsU-5" style="edgeStyle=orthogonalEdgeStyle;rounded=1;orthogonalLoop=1;jettySize=auto;html=1;entryX=0;entryY=0.5;entryDx=0;entryDy=0;entryPerimeter=0;curved=0;" parent="1" source="Ph4pWJoEh3kO78XfMUsU-1" target="sEKXlLHFd7eWCiAS6N1--1" edge="1">
          <mxGeometry relative="1" as="geometry" />
        </mxCell>
        <mxCell id="Ph4pWJoEh3kO78XfMUsU-6" style="edgeStyle=orthogonalEdgeStyle;rounded=1;orthogonalLoop=1;jettySize=auto;html=1;entryX=0;entryY=0.5;entryDx=0;entryDy=0;entryPerimeter=0;curved=0;" parent="1" source="Ph4pWJoEh3kO78XfMUsU-1" target="zA23MoTUsTF4_91t8viU-2" edge="1">
          <mxGeometry relative="1" as="geometry" />
        </mxCell>
        <mxCell id="Ph4pWJoEh3kO78XfMUsU-9" value="ConfigSrv1" style="rounded=1;whiteSpace=wrap;html=1;strokeColor=#212427;fontColor=#212427;" parent="1" vertex="1">
          <mxGeometry x="330" y="150" width="120" height="60" as="geometry" />
        </mxCell>
        <mxCell id="Ph4pWJoEh3kO78XfMUsU-10" value="ConfigSrv1-3" style="rounded=1;whiteSpace=wrap;html=1;strokeColor=#212427;fontColor=#212427;" parent="1" vertex="1">
          <mxGeometry x="300" y="130" width="120" height="60" as="geometry" />
        </mxCell>
        <mxCell id="qQEgVHVd-fYbN1bwtHLe-3" style="rounded=0;orthogonalLoop=1;jettySize=auto;html=1;entryX=0;entryY=0.5;entryDx=0;entryDy=0;fontFamily=Helvetica;fontSize=12;fontColor=#212427;dashed=1;" parent="1" source="Ph4pWJoEh3kO78XfMUsU-12" target="Ph4pWJoEh3kO78XfMUsU-10" edge="1">
          <mxGeometry relative="1" as="geometry" />
        </mxCell>
        <mxCell id="Ph4pWJoEh3kO78XfMUsU-12" value="3 конфигурационных сервера для исключения split brain и отказоустойчивости, как критического компонента всего кластера Mongo" style="shape=note;strokeWidth=2;fontSize=14;size=20;whiteSpace=wrap;html=1;fillColor=#fff2cc;strokeColor=#d6b656;fontColor=#666600;rounded=1;align=left;verticalAlign=top;spacingLeft=5;fontFamily=Helvetica;" parent="1" vertex="1">
          <mxGeometry x="80" y="30" width="190" height="120" as="geometry" />
        </mxCell>
      </root>
    </mxGraphModel>
  </diagram>
</mxfile>
